<?xml version="1.0" encoding="utf-8"?>
<!-- Generator: Adobe Illustrator 26.0.1, SVG Export Plug-In . SVG Version: 6.00 Build 0)  -->
<svg version="1.1" id="Layer_1" xmlns="http://www.w3.org/2000/svg" xmlns:xlink="http://www.w3.org/1999/xlink" x="0px" y="0px"
	 viewBox="0 0 29 15.7" style="enable-background:new 0 0 29 15.7;" xml:space="preserve">
<style type="text/css">
	.st0{fill:#F9F9F9;}
</style>
<g id="Layer_1_00000044870317152308782970000012337010163389353118_">
	<g id="surface1">
		<path class="st0" d="M14.5,0C6.4,0,0.1,7.5,0.1,7.5C0,7.7,0,8,0.1,8.3c0,0,6.3,7.5,14.4,7.5s14.4-7.5,14.4-7.5
			C29,8,29,7.7,28.9,7.5C28.9,7.5,22.6,0,14.5,0z M14.5,1.2c1.6,0,3.1,0.3,4.5,0.8c0.9,1.1,1.5,2.5,1.5,4c0,3.3-2.7,6-6,6
			s-6-2.7-6-6C8.5,4.5,9,3.1,10,2C11.4,1.5,12.9,1.2,14.5,1.2z M8,2.9c-0.5,1-0.8,2-0.8,3.1c0,4,3.3,7.3,7.3,7.3S21.8,10,21.8,6
			c0-1.1-0.3-2.2-0.7-3.1c3.4,1.7,5.9,4.3,6.5,4.9c-1,1.1-6.4,6.6-13,6.6S2.4,8.9,1.5,7.9C2.1,7.2,4.5,4.7,8,2.9z M14.5,3
			c-1.7,0-3,1.4-3,3s1.4,3,3,3s3-1.4,3-3S16.2,3,14.5,3z"/>
	</g>
</g>
</svg>
